<svg aria-hidden="true" style="position: absolute; width: 0; height: 0; overflow: hidden;" version="1.1" xmlns="http://www.w3.org/2000/svg" xmlns:xlink="http://www.w3.org/1999/xlink">
<defs>
<symbol id="icon-icon-5" viewBox="0 0 32 32">
<path fill="#ff0043" style="fill: var(--color1, #ff0043)" d="M12.69 3.945c-6.997 0-12.69 5.123-12.69 11.421 0 2.201 0.696 4.334 2.017 6.177-0.25 2.765-0.92 4.818-1.893 5.79-0.129 0.129-0.161 0.325-0.080 0.488 0.072 0.145 0.22 0.234 0.379 0.234 0.019 0 0.039-0.001 0.059-0.004 0.171-0.024 4.151-0.597 7.029-2.258 1.634 0.659 3.375 0.994 5.179 0.994 6.997 0 12.69-5.123 12.69-11.421s-5.693-11.421-12.69-11.421z"></path>
<path fill="#fff" style="fill: var(--color2, #fff)" d="M6.768 17.058c-0.933 0-1.692-0.759-1.692-1.692s0.759-1.692 1.692-1.692 1.692 0.759 1.692 1.692c0 0.933-0.759 1.692-1.692 1.692z"></path>
<path fill="#fff" style="fill: var(--color2, #fff)" d="M12.69 17.058c-0.933 0-1.692-0.759-1.692-1.692s0.759-1.692 1.692-1.692 1.692 0.759 1.692 1.692c0 0.933-0.759 1.692-1.692 1.692z"></path>
<path fill="#fff" style="fill: var(--color2, #fff)" d="M18.611 17.058c-0.933 0-1.692-0.759-1.692-1.692s0.759-1.692 1.692-1.692 1.692 0.759 1.692 1.692c0 0.933-0.759 1.692-1.692 1.692z"></path>
</symbol>
<symbol id="icon-icon-3" viewBox="0 0 32 32">
<path fill="#ff0043" style="fill: var(--color1, #ff0043)" d="M19.5 8.45v19.6c0 0.42-0.33 0.75-0.75 0.75h-18c-0.42 0-0.75-0.33-0.75-0.75v-24.1c0-0.42 0.33-0.75 0.75-0.75h12l1.5 2.625 1.5 1.125 3.75 1.5z"></path>
<path fill="#d30037" style="fill: var(--color3, #d30037)" d="M19.2 7.85l-6-4.5c-0.135-0.090-0.285-0.15-0.45-0.15v4.5c0 0.414 0.336 0.75 0.75 0.75h6c0-0.24-0.105-0.465-0.3-0.6z"></path>
<path fill="#fff" style="fill: var(--color2, #fff)" d="M7.386 17.802c-0.22-0.351-0.113-0.814 0.239-1.033l3.457-2.159c0.35-0.217 0.814-0.112 1.033 0.24 0.22 0.351 0.113 0.814-0.239 1.033l-3.457 2.159c-0.347 0.217-0.812 0.115-1.033-0.24z"></path>
<path fill="#fff" style="fill: var(--color2, #fff)" d="M11.082 21.791l-3.457-2.159c-0.352-0.22-0.458-0.683-0.239-1.033 0.22-0.352 0.686-0.456 1.033-0.239l3.457 2.159c0.352 0.22 0.459 0.683 0.239 1.033-0.221 0.355-0.685 0.457-1.033 0.239z"></path>
<path fill="#fff" style="fill: var(--color2, #fff)" d="M6.75 20.45c-1.241 0-2.25-1.009-2.25-2.25s1.009-2.25 2.25-2.25c1.241 0 2.25 1.009 2.25 2.25s-1.009 2.25-2.25 2.25z"></path>
<path fill="#fff" style="fill: var(--color2, #fff)" d="M12.75 16.7c-1.241 0-2.25-1.009-2.25-2.25s1.009-2.25 2.25-2.25c1.241 0 2.25 1.009 2.25 2.25s-1.009 2.25-2.25 2.25z"></path>
<path fill="#fff" style="fill: var(--color2, #fff)" d="M12.75 24.2c-1.241 0-2.25-1.009-2.25-2.25s1.009-2.25 2.25-2.25c1.241 0 2.25 1.009 2.25 2.25s-1.009 2.25-2.25 2.25z"></path>
</symbol>
<symbol id="icon-icon-2" viewBox="0 0 32 32">
<path fill="#ff0043" style="fill: var(--color1, #ff0043)" d="M21.978 6.416l-10.646-3.194c-0.1-0.030-0.206-0.030-0.306 0l-10.646 3.194c-0.225 0.067-0.38 0.275-0.38 0.51v11.71c0 4.707 7.177 8.894 11.021 10.090 0.104 0.033 0.215 0.033 0.319 0 3.839-1.197 11.016-5.384 11.016-10.090v-11.71c0-0.235-0.154-0.442-0.379-0.51z"></path>
<path fill="#fafafa" style="fill: var(--color4, #fafafa)" d="M10.114 20.233c-0.141 0-0.277-0.056-0.377-0.155l-4.258-4.258c-0.204-0.211-0.198-0.548 0.013-0.753 0.206-0.199 0.533-0.199 0.74 0l3.883 3.881 7.075-7.075c0.204-0.211 0.541-0.217 0.753-0.013s0.217 0.541 0.013 0.753c-0.004 0.004-0.009 0.009-0.013 0.013l-7.452 7.452c-0.1 0.1-0.235 0.155-0.376 0.155z"></path>
</symbol>
<symbol id="icon-windows" viewBox="0 0 32 32">
<path fill="#ff0043" style="fill: var(--color1, #ff0043)" d="M14.136 15.183v-11.278l-13.437 1.68v9.598h13.437z"></path>
<path fill="#ff0043" style="fill: var(--color1, #ff0043)" d="M16.055 15.183h15.357v-13.437l-15.357 1.92v11.518z"></path>
<path fill="#ff0043" style="fill: var(--color1, #ff0043)" d="M16.055 17.103v11.518l15.357 1.92v-13.438h-15.357z"></path>
<path fill="#ff0043" style="fill: var(--color1, #ff0043)" d="M14.136 17.103h-13.437v9.598l13.437 1.68v-11.278z"></path>
</symbol>
<symbol id="icon-icon-1" viewBox="0 0 32 32">
<path fill="#ff0043" style="fill: var(--color1, #ff0043)" d="M12.198 8.783c-0.496 0.197-1.011 0.3-1.546 0.286-0.102-0.001-0.141-0.028-0.146-0.136-0.083-1.013 0.188-1.941 0.677-2.814 0.835-1.491 2.105-2.412 3.755-2.817 0.141-0.036 0.287-0.054 0.44-0.074 0.068-0.009 0.137-0.018 0.208-0.028 0.002 0.068 0.006 0.132 0.009 0.194 0.005 0.094 0.009 0.183 0.011 0.271 0.036 1.829-1.146 4.22-3.407 5.118zM20.754 22.060c0.026-0.077 0.052-0.153 0.078-0.228-1.998-0.994-3.217-2.526-3.369-4.79-0.15-2.263 0.883-3.934 2.698-5.199-0.013-0.019-0.031-0.046-0.048-0.070l-0.007-0.010c-0.72-1.010-1.673-1.703-2.844-2.095-0.826-0.277-1.675-0.39-2.546-0.319-0.582 0.046-1.139 0.21-1.687 0.41-0.535 0.198-1.068 0.401-1.601 0.604-0.481 0.184-0.96 0.184-1.441 0.004-0.522-0.196-1.043-0.393-1.563-0.592-0.988-0.38-1.995-0.48-3.031-0.236-1.722 0.403-3.031 1.381-3.959 2.874-0.74 1.188-1.061 2.505-1.143 3.889-0.070 1.154 0.044 2.293 0.282 3.422 0.551 2.626 1.692 4.971 3.393 7.044 0.359 0.437 0.743 0.849 1.2 1.188 0.368 0.272 0.765 0.484 1.219 0.568 0.52 0.098 1.030 0.031 1.522-0.134 0.296-0.1 0.585-0.218 0.875-0.337 0.126-0.052 0.251-0.103 0.378-0.153 1.156-0.457 2.324-0.513 3.499-0.086 0.234 0.085 0.464 0.184 0.694 0.282 0.125 0.053 0.25 0.107 0.376 0.158 0.493 0.201 1.004 0.297 1.537 0.28 0.709-0.025 1.322-0.297 1.855-0.748 0.27-0.227 0.53-0.471 0.754-0.742 1.161-1.388 2.117-2.903 2.747-4.609 0.047-0.125 0.090-0.252 0.132-0.376z"></path>
</symbol>
<symbol id="icon-icon" viewBox="0 0 32 32">
<path fill="#ff0043" style="fill: var(--color1, #ff0043)" d="M1.633 11.723c-0.882 0-1.597 0.715-1.597 1.597v7.452c0 0.882 0.715 1.597 1.597 1.597s1.597-0.715 1.597-1.597v-7.452c0-0.882-0.715-1.597-1.597-1.597z"></path>
<path fill="#ff0043" style="fill: var(--color1, #ff0043)" d="M19.731 11.723c-0.882 0-1.597 0.715-1.597 1.597v7.452c0 0.882 0.715 1.597 1.597 1.597s1.597-0.715 1.597-1.597v-7.452c0-0.882-0.715-1.597-1.597-1.597z"></path>
<path fill="#ff0043" style="fill: var(--color1, #ff0043)" d="M16.537 11.723h-11.71c-0.294 0-0.532 0.238-0.532 0.532v8.517c-0 1.265 0.89 2.355 2.129 2.608v3.779c0 0.882 0.715 1.597 1.597 1.597s1.597-0.715 1.597-1.597v-3.726h2.129v3.726c0 0.882 0.715 1.597 1.597 1.597s1.597-0.715 1.597-1.597v-3.779c1.239-0.253 2.129-1.343 2.129-2.608v-8.517c-0-0.294-0.238-0.532-0.532-0.532z"></path>
<path fill="#ff0043" style="fill: var(--color1, #ff0043)" d="M14.552 5.412l1.298-1.297c0.211-0.204 0.217-0.541 0.013-0.753s-0.541-0.217-0.753-0.013c-0.004 0.004-0.009 0.009-0.013 0.013l-1.512 1.512c-1.852-0.804-3.954-0.804-5.805 0l-1.512-1.513c-0.211-0.204-0.548-0.198-0.753 0.013-0.199 0.206-0.199 0.533 0 0.74l1.297 1.298c-1.581 1.046-2.527 2.819-2.518 4.714 0 0.294 0.238 0.532 0.532 0.532h11.71c0.294 0 0.532-0.238 0.532-0.532 0.010-1.895-0.937-3.668-2.518-4.714z"></path>
<path fill="#fafafa" style="fill: var(--color4, #fafafa)" d="M8.553 7.997c0 0.294-0.238 0.532-0.532 0.532s-0.532-0.238-0.532-0.532c0-0.294 0.238-0.532 0.532-0.532s0.532 0.238 0.532 0.532z"></path>
<path fill="#fafafa" style="fill: var(--color4, #fafafa)" d="M13.876 7.997c0 0.294-0.238 0.532-0.532 0.532s-0.532-0.238-0.532-0.532c0-0.294 0.238-0.532 0.532-0.532s0.532 0.238 0.532 0.532z"></path>
</symbol>
<symbol id="icon-cross" viewBox="0 0 32 32">
<path d="M32 3.223l-3.223-3.223-12.777 12.777-12.777-12.777-3.223 3.223 12.777 12.777-12.777 12.777 3.223 3.223 12.777-12.777 12.777 12.777 3.223-3.223-12.777-12.777 12.777-12.777z"></path>
</symbol>
</defs>
</svg>
